<svg width="85" height="77" viewBox="0 0 85 77" fill="none" xmlns="http://www.w3.org/2000/svg">
<rect width="85" height="77" rx="29" fill="#F2BB39"/>
<g clip-path="url(#clip0_88_3429)">
<path d="M15.8739 61.876L18.0877 61.8615L28.8706 38.4626L30.245 40.1222L20.2319 61.8475L25.2771 61.8143L33.456 43.9912L41.309 53.4548L41.614 53.82L42.1285 53.8137L44.2261 53.7854L53.4671 33.0573L55.6014 33.052L46.37 53.7541L49.6062 53.7097L51.0068 53.6888L50.983 53.6341L51.0461 53.6337L60.5205 33.0371L65.3303 33.0256L61.8748 18.1075L46.4601 33.0745L51.1701 33.0609L45.5195 45.3434L38.4716 36.965L38.1668 36.6024L37.6491 36.6117L36.8358 36.6256L36.8456 36.6053L27.4433 36.7741L15.8735 61.876L15.8739 61.876ZM31.3172 38.4581L37.1749 38.3502L44.6517 47.2348L42.4916 51.9255L31.3172 38.4581Z" fill="#273A54"/>
</g>
<defs>
<clipPath id="clip0_88_3429">
<rect width="47.384" height="54.3828" fill="white" transform="matrix(-0.00801072 -0.999968 0.999978 -0.00657385 13.998 63.91)"/>
</clipPath>
</defs>
</svg>
